<svg width="50" height="32" viewBox="0 0 50 32" fill="none" xmlns="http://www.w3.org/2000/svg">
<g clip-path="url(#clip0)">
<path d="M7.8125 7.80917C7.8125 8.33651 7.55078 8.8248 7.11719 9.11386C6.64844 9.42636 6.17969 9.39511 5.94531 9.34823C5.70703 9.30136 5.26562 9.15292 4.95312 8.68417C4.77734 8.42245 4.6914 8.13339 4.6914 7.82089C4.6914 7.29355 4.95312 6.80526 5.38672 6.5162C6.10156 6.03964 7.07422 6.23105 7.55468 6.9498C7.72265 7.20761 7.8125 7.49667 7.8125 7.80917ZM12.5 7.80917C12.5 6.61776 12.1602 5.41073 11.4492 4.34433C9.53125 1.47323 5.65234 0.699795 2.78125 2.61776C0.97656 3.82089 -3.99991e-06 5.80136 -4.08819e-06 7.82089C-4.14027e-06 9.0123 0.339841 10.2193 1.05078 11.2857C2.96875 14.1568 6.84765 14.9303 9.71875 13.0123C11.5234 11.8053 12.5 9.8248 12.5 7.80917Z" fill="#0076BB"/>
<path d="M40.6214 28.1136L40.6214 24.9886L21.8753 24.9886L21.8753 28.1136L40.6214 28.1136Z" fill="#54C8E8"/>
<path d="M50 21.875L43.8281 21.875C41.1875 21.875 39.0508 23.9727 39.0508 26.5625C39.0508 29.1523 41.1914 31.25 43.8281 31.25L50 31.25L50 21.875Z" fill="#54C8E8"/>
<path d="M23.4375 21.875L4.82031 21.875C2.15625 21.875 1.81566e-06 23.9727 1.70245e-06 26.5625C1.58925e-06 29.1523 2.16016 31.25 4.82031 31.25L23.4375 31.25L23.4375 21.875Z" fill="#54C8E8"/>
<path d="M39.8755 10.9375L39.8755 4.6875L8.84424 4.6875L8.84424 10.9375L39.8755 10.9375Z" fill="#0076BB"/>
<path d="M49.9647 10.9375L42.1873 10.9375L42.1873 4.6875L49.9647 4.6875C49.0623 2.07812 46.0428 -1.71431e-07 43.0076 -3.04101e-07C38.6912 -4.92778e-07 35.1951 3.49609 35.1951 7.8125C35.1951 12.1289 38.6912 15.625 43.0076 15.625C46.0428 15.625 48.9803 13.668 49.9647 10.9375Z" fill="#0076BB"/>
</g>
<defs>
<clipPath id="clip0">
<rect width="31.25" height="50" fill="white" transform="translate(50) rotate(90)"/>
</clipPath>
</defs>
</svg>
