<svg width="50" height="38" viewBox="0 0 50 38" fill="none" xmlns="http://www.w3.org/2000/svg">
<g clip-path="url(#clip0)">
<path d="M50 4.68604H0V37.4934H50V4.68604Z" fill="#0076BB"/>
<path d="M49.9961 0H0V4.68677H49.9961V0Z" fill="#54C8E8"/>
<path d="M2.34314 3.12427C2.77454 3.12427 3.12427 2.77454 3.12427 2.34314C3.12427 1.91173 2.77454 1.56201 2.34314 1.56201C1.91173 1.56201 1.56201 1.91173 1.56201 2.34314C1.56201 2.77454 1.91173 3.12427 2.34314 3.12427Z" fill="#0076BB"/>
<path d="M4.68665 3.12427C5.11805 3.12427 5.46777 2.77454 5.46777 2.34314C5.46777 1.91173 5.11805 1.56201 4.68665 1.56201C4.25524 1.56201 3.90552 1.91173 3.90552 2.34314C3.90552 2.77454 4.25524 3.12427 4.68665 3.12427Z" fill="#0076BB"/>
<path d="M7.03015 3.12427C7.46156 3.12427 7.81128 2.77454 7.81128 2.34314C7.81128 1.91173 7.46156 1.56201 7.03015 1.56201C6.59875 1.56201 6.24902 1.91173 6.24902 2.34314C6.24902 2.77454 6.59875 3.12427 7.03015 3.12427Z" fill="#0076BB"/>
<path d="M15.6226 14.0952H3.12451V26.5933H15.6226V14.0952Z" fill="#54C8E8"/>
<path d="M40.6187 26.5933C37.1661 26.5933 34.3696 23.7968 34.3696 20.3442C34.3696 16.8917 37.1661 14.0952 40.6187 14.0952C44.0712 14.0952 46.8677 16.8917 46.8677 20.3442C46.8677 23.7968 44.0712 26.5933 40.6187 26.5933Z" fill="#54C8E8"/>
<path d="M20.3091 14.0952V26.5933H32.8071L20.3091 14.0952Z" fill="#54C8E8"/>
</g>
<defs>
<clipPath id="clip0">
<rect width="50" height="37.4941" fill="white"/>
</clipPath>
</defs>
</svg>
