<svg width="50" height="50" viewBox="0 0 50 50" fill="none" xmlns="http://www.w3.org/2000/svg">
<path d="M4.6875 4.6875H45.3125L4.6875 45.3125H45.3125" stroke="#0076BB" stroke-width="2" stroke-miterlimit="10"/>
<path d="M4.6875 9.375C7.27633 9.375 9.375 7.27633 9.375 4.6875C9.375 2.09867 7.27633 0 4.6875 0C2.09867 0 0 2.09867 0 4.6875C0 7.27633 2.09867 9.375 4.6875 9.375Z" fill="#0076BB"/>
<path d="M25 29.6875C27.5888 29.6875 29.6875 27.5888 29.6875 25C29.6875 22.4112 27.5888 20.3125 25 20.3125C22.4112 20.3125 20.3125 22.4112 20.3125 25C20.3125 27.5888 22.4112 29.6875 25 29.6875Z" fill="#0076BB"/>
<path d="M45.3125 50C47.9013 50 50 47.9013 50 45.3125C50 42.7237 47.9013 40.625 45.3125 40.625C42.7237 40.625 40.625 42.7237 40.625 45.3125C40.625 47.9013 42.7237 50 45.3125 50Z" fill="#54C8E8"/>
<path d="M45.3125 9.375C47.9013 9.375 50 7.27633 50 4.6875C50 2.09867 47.9013 0 45.3125 0C42.7237 0 40.625 2.09867 40.625 4.6875C40.625 7.27633 42.7237 9.375 45.3125 9.375Z" fill="#0076BB"/>
<path d="M4.6875 50C7.27633 50 9.375 47.9013 9.375 45.3125C9.375 42.7237 7.27633 40.625 4.6875 40.625C2.09867 40.625 0 42.7237 0 45.3125C0 47.9013 2.09867 50 4.6875 50Z" fill="#0076BB"/>
</svg>
