<svg width="50" height="50" viewBox="0 0 50 50" fill="none" xmlns="http://www.w3.org/2000/svg">
<path d="M50 0V50H0V0H50Z" fill="#0076BB"/>
<path d="M34.375 26.5625H39.0625V31.25H34.375V26.5625Z" fill="#54C8E8"/>
<path d="M26.5625 26.5625H31.25V31.25H26.5625V26.5625Z" fill="#54C8E8"/>
<path d="M34.375 34.375H39.0625V39.0625H34.375V34.375Z" fill="#54C8E8"/>
<path d="M26.5625 34.375H31.25V39.0625H26.5625V34.375Z" fill="#54C8E8"/>
<path d="M18.75 26.5625H23.4375V31.25H18.75V26.5625Z" fill="white"/>
<path d="M34.375 18.75H39.0625V23.4375H34.375V18.75Z" fill="#54C8E8"/>
<path d="M26.5625 18.75H31.25V23.4375H26.5625V18.75Z" fill="white"/>
<path d="M34.375 10.9375H39.0625V15.625H34.375V10.9375Z" fill="white"/>
<path d="M18.75 34.375H23.4375V39.0625H18.75V34.375Z" fill="#54C8E8"/>
<path d="M10.9375 34.375H15.625V39.0625H10.9375V34.375Z" fill="white"/>
</svg>
