<svg width="51" height="50" viewBox="0 0 51 50" fill="none" xmlns="http://www.w3.org/2000/svg">
<g clip-path="url(#clip0)">
<path d="M31.0856 26.681V47.7665H47.6377" stroke="#0076BB" stroke-width="2" stroke-miterlimit="10"/>
<path d="M18.6995 26.681V47.7665H2.34265" stroke="#0076BB" stroke-width="2" stroke-miterlimit="10"/>
<path d="M47.6376 49.9994C48.9315 49.9994 49.9805 48.9505 49.9805 47.6566C49.9805 46.3626 48.9315 45.3137 47.6376 45.3137C46.3437 45.3137 45.2948 46.3626 45.2948 47.6566C45.2948 48.9505 46.3437 49.9994 47.6376 49.9994Z" fill="#54C8E8"/>
<path d="M2.34283 49.9994C3.63675 49.9994 4.68567 48.9505 4.68567 47.6566C4.68567 46.3626 3.63675 45.3137 2.34283 45.3137C1.04892 45.3137 0 46.3626 0 47.6566C0 48.9505 1.04892 49.9994 2.34283 49.9994Z" fill="#54C8E8"/>
<path d="M25.0215 38.8752V25.2555" stroke="#0076BB" stroke-width="2" stroke-miterlimit="10"/>
<path d="M25.0214 41.5745C26.3153 41.5745 27.3642 40.5255 27.3642 39.2316C27.3642 37.9377 26.3153 36.8888 25.0214 36.8888C23.7274 36.8888 22.6785 37.9377 22.6785 39.2316C22.6785 40.5255 23.7274 41.5745 25.0214 41.5745Z" fill="#54C8E8"/>
<path d="M31.3158 39.0662H41.39" stroke="#0076BB" stroke-width="2" stroke-miterlimit="10"/>
<path d="M39.0471 41.4096C40.341 41.4096 41.3899 40.3606 41.3899 39.0667C41.3899 37.7728 40.341 36.7239 39.0471 36.7239C37.7531 36.7239 36.7042 37.7728 36.7042 39.0667C36.7042 40.3606 37.7531 41.4096 39.0471 41.4096Z" fill="#54C8E8"/>
<path d="M18.7425 39.0662H10.1521" stroke="#0076BB" stroke-width="2" stroke-miterlimit="10"/>
<path d="M11.0423 41.4096C12.3362 41.4096 13.3851 40.3606 13.3851 39.0667C13.3851 37.7728 12.3362 36.7239 11.0423 36.7239C9.74839 36.7239 8.69946 37.7728 8.69946 39.0667C8.69946 40.3606 9.74839 41.4096 11.0423 41.4096Z" fill="#54C8E8"/>
<path d="M19.5627 29.715C27.7683 29.715 34.4202 23.063 34.4202 14.8575C34.4202 6.65192 27.7683 0 19.5627 0C11.3572 0 4.70526 6.65192 4.70526 14.8575C4.70526 23.063 11.3572 29.715 19.5627 29.715Z" fill="#0076BB"/>
<path d="M44.5451 29.7268H5.49786C2.47951 29.7268 0.03125 27.2785 0.03125 24.2602C0.03125 21.2418 2.47951 18.7936 5.49786 18.7936H44.5451C47.5635 18.7936 50.0117 21.2418 50.0117 24.2602C50.0117 27.2824 47.5674 29.7268 44.5451 29.7268Z" fill="#0076BB"/>
<path d="M35.209 24.6975C40.7297 24.6975 45.2051 20.2221 45.2051 14.7014C45.2051 9.18073 40.7297 4.70532 35.209 4.70532C29.6883 4.70532 25.2129 9.18073 25.2129 14.7014C25.2129 20.2221 29.6883 24.6975 35.209 24.6975Z" fill="#0076BB"/>
</g>
<defs>
<clipPath id="clip0">
<rect width="50.0117" height="50" fill="white"/>
</clipPath>
</defs>
</svg>
