<svg width="41" height="50" viewBox="0 0 41 50" fill="none" xmlns="http://www.w3.org/2000/svg">
<path d="M40.625 0H6.25V45.3125H40.625V0Z" fill="#54C8E8"/>
<path d="M34.375 4.6875H0V50H34.375V4.6875Z" fill="#0076BB"/>
<path d="M12.5 37.5039C11.0195 37.5039 9.93359 37.1875 9.24219 36.5508C8.55078 35.9141 8.20312 34.8789 8.20312 33.4453V29.9062C8.20312 28.3281 7.55078 27.5352 6.25 27.5352V25.5937C7.55078 25.5937 8.20312 24.7617 8.20312 23.0977V19.7812C8.20312 18.3633 8.55469 17.3164 9.25781 16.6406C9.96094 15.9648 11.043 15.625 12.5 15.625V17.5703C11.1992 17.5703 10.5469 18.3164 10.5469 19.8086V22.9648C10.5469 24.8672 9.89453 26.0547 8.59375 26.5273V26.582C9.89453 27.0039 10.5469 28.1641 10.5469 30.0664V33.2109C10.5469 34.0234 10.6953 34.6172 10.9922 34.9922C11.2891 35.3672 11.793 35.5586 12.5 35.5586V37.5039Z" fill="white"/>
<path d="M21.875 35.5547C22.582 35.5547 23.0859 35.3672 23.3828 34.9883C23.6797 34.6094 23.8281 34.0156 23.8281 33.207V30.0625C23.8281 28.1602 24.4805 27 25.7812 26.5781V26.5234C24.4805 26.0469 23.8281 24.8594 23.8281 22.9609V19.8047C23.8281 18.3125 23.1758 17.5664 21.875 17.5664V15.625C23.332 15.625 24.4102 15.9648 25.1172 16.6406C25.8203 17.3164 26.1719 18.3633 26.1719 19.7812V23.0977C26.1719 24.7617 26.8242 25.5937 28.125 25.5937V27.5352C26.8242 27.5352 26.1719 28.3242 26.1719 29.9062V33.4453C26.1719 34.8789 25.8242 35.9141 25.1328 36.5508C24.4414 37.1836 23.3555 37.5 21.875 37.5V35.5547Z" fill="white"/>
</svg>
